<svg width="60" height="60" viewBox="0 0 60 60" fill="none" xmlns="http://www.w3.org/2000/svg">
<rect width="60" height="60" rx="30" fill="#FEF9E1"/>
<path d="M38.6201 24.45C37.5701 19.83 33.5401 17.75 30.0001 17.75C30.0001 17.75 30.0001 17.75 29.9901 17.75C26.4601 17.75 22.4201 19.82 21.3701 24.44C20.2001 29.6 23.3601 33.97 26.2201 36.72C27.2801 37.74 28.6401 38.25 30.0001 38.25C31.3601 38.25 32.7201 37.74 33.7701 36.72C36.6301 33.97 39.7901 29.61 38.6201 24.45ZM30.0001 29.46C28.2601 29.46 26.8501 28.05 26.8501 26.31C26.8501 24.57 28.2601 23.16 30.0001 23.16C31.7401 23.16 33.1501 24.57 33.1501 26.31C33.1501 28.05 31.7401 29.46 30.0001 29.46Z" fill="url(#paint0_linear_6507_3746)"/>
<defs>
<linearGradient id="paint0_linear_6507_3746" x1="30.5525" y1="39.4113" x2="22.6655" y2="23.8005" gradientUnits="userSpaceOnUse">
<stop stop-color="#F68E1E"/>
<stop offset="1" stop-color="#FFC909"/>
</linearGradient>
</defs>
</svg>
